PathFileType	4	(X/Y/Z)	 s02c0103.trc
DataRate	CameraRate	NumFrames	NumMarkers	Units	OrigDataRate	OrigDataStartFrame	OrigNumFrames
200	200	7	50	mm	200	251	2000
Frame#	Time	racr			lacr			c7			jug			rlel			rdr			llel			ldr			s2			lic			ric			lasi			rasi			rpsi			lpsi			rgt			lgt			rth1			rth2			rth3			rth4			rlfc			rmfc			rsh1			rsh2			rsh3			rsh4			rlmal			rmmal			rtoe			rmt5			rmt1			lth1			lth2			lth4			lth3			llfc			lmfc			lsh1			lsh2			lsh3			lsh4			llmal			lmmal			lcal			ltoe			lmt5			SBIKE			LBIKE			RBIKE			
		X1	Y1	Z1	X2	Y2	Z2	X3	Y3	Z3	X4	Y4	Z4	X5	Y5	Z5	X6	Y6	Z6	X7	Y7	Z7	X8	Y8	Z8	X9	Y9	Z9	X10	Y10	Z10	X11	Y11	Z11	X12	Y12	Z12	X13	Y13	Z13	X14	Y14	Z14	X15	Y15	Z15	X16	Y16	Z16	X17	Y17	Z17	X18	Y18	Z18	X19	Y19	Z19	X20	Y20	Z20	X21	Y21	Z21	X22	Y22	Z22	X23	Y23	Z23	X24	Y24	Z24	X25	Y25	Z25	X26	Y26	Z26	X27	Y27	Z27	X28	Y28	Z28	X29	Y29	Z29	X30	Y30	Z30	X31	Y31	Z31	X32	Y32	Z32	X33	Y33	Z33	X34	Y34	Z34	X35	Y35	Z35	X36	Y36	Z36	X37	Y37	Z37	X38	Y38	Z38	X39	Y39	Z39	X40	Y40	Z40	X41	Y41	Z41	X42	Y42	Z42	X43	Y43	Z43	X44	Y44	Z44	X45	Y45	Z45	X46	Y46	Z46	X47	Y47	Z47	X48	Y48	Z48	X49	Y49	Z49	X50	Y50	Z50	
251	1.2550	480.926815	1282.096053	-122.846468	506.855428	1292.985471	-461.988228	514.003625	1303.691077	-297.709353	445.413891	1185.924821	-298.432846	587.884795	1033.197146	-103.358459	710.188692	836.926723	-130.199047	579.787013	1028.001937	-518.577847	710.148481	835.126258	-474.257035	-4.860151	1126.962766	-324.023235	NaN	NaN	NaN	115.585593	1112.332114	-175.810684	181.956936	1060.108020	-433.126065	166.254560	1089.596805	-206.455385	7.526853	1151.775398	-283.988544	24.950322	1153.540117	-371.852689	83.699908	1049.363285	-132.510098	79.455396	1008.508920	-494.768684	171.668311	1024.514403	-130.604543	258.871018	1014.089577	-137.049165	330.147915	973.326391	-111.346064	269.588685	1036.543523	-165.271539	452.364293	883.885829	-141.436775	448.615581	864.813542	-253.965465	438.161971	771.114116	-127.175577	422.467796	684.923373	-147.362234	373.372904	614.726658	-141.940619	436.956780	682.529976	-183.761739	317.276225	508.561200	-149.170213	325.036558	530.592806	-229.171089	530.214762	461.544507	-184.522410	421.493003	439.438846	-128.725300	449.870200	456.362208	-236.409794	180.528196	904.789520	-502.895200	244.457372	846.270117	-495.818947	271.589155	864.519436	-479.643606	270.072433	760.877321	-493.268219	317.776865	673.655739	-466.136706	311.327262	646.349345	-362.421632	272.855330	579.612177	-489.667209	242.581853	499.951675	-474.305947	175.953293	439.766589	-483.081706	256.255833	492.812481	-436.521511	98.889384	364.251536	-470.760047	113.783073	355.057459	-394.553178	19.625505	341.795918	-430.504204	269.676663	201.981611	-442.125250	163.379820	228.886985	-499.893858	-126.737744	871.891275	-308.355796	37.313531	86.545164	-514.162047	33.873599	83.002095	-114.263756	
252	1.2600	480.905572	1282.090406	-122.839144	506.855033	1293.007976	-461.968807	513.993172	1303.629968	-297.689601	445.382969	1185.897386	-298.494296	587.921569	1033.204831	-103.384420	710.214088	836.926537	-130.177894	579.793031	1028.020210	-518.624374	710.130393	835.137161	-474.278246	-4.919708	1127.001177	-324.015625	NaN	NaN	NaN	115.526462	1112.312037	-175.840471	181.915542	1060.101526	-433.162427	166.205622	1089.606488	-206.498356	7.489311	1151.814079	-283.987720	24.925936	1153.557506	-371.860097	83.646218	1049.397062	-132.526351	79.433454	1008.532298	-494.794196	171.602073	1024.544152	-130.639340	258.807559	1014.159027	-137.118135	330.066105	973.420589	-111.396943	269.497291	1036.612878	-165.314375	452.294866	883.994782	-141.472593	448.570363	864.885609	-254.024712	438.150723	771.217258	-127.176369	422.502432	685.026542	-147.377295	373.448153	614.776225	-141.945557	436.982148	682.576850	-183.777399	317.389326	508.586153	-149.169233	325.142158	530.602184	-229.165119	530.293134	461.462068	-184.533537	421.561836	439.410205	-128.732720	449.954423	456.297418	-236.400690	180.527660	904.817189	-502.938253	244.499841	846.330302	-495.901834	271.603299	864.579443	-479.702731	270.127504	760.925165	-493.339107	317.872502	673.742563	-466.221333	311.421722	646.410992	-362.481599	272.953210	579.674441	-489.726503	242.693748	500.031451	-474.335609	176.046090	439.833169	-483.113500	256.329306	492.882279	-436.524384	98.983417	364.374905	-470.754139	113.850781	355.152572	-394.568881	19.711474	341.949384	-430.485353	269.652681	201.939114	-442.133322	163.379958	228.931957	-499.890039	-126.744292	871.895056	-308.346606	37.309525	86.547087	-514.145195	33.870604	83.083727	-114.331478	
253	1.2650	480.893450	1282.095618	-122.867545	506.851099	1292.994224	-461.925345	513.997577	1303.557554	-297.678041	445.386382	1185.833822	-298.493499	587.910919	1033.210847	-103.436373	710.208678	836.946473	-130.196961	579.798268	1028.022160	-518.668500	710.141270	835.143456	-474.257391	-4.976724	1127.031540	-324.028518	NaN	NaN	NaN	115.442478	1112.360611	-175.810847	181.889283	1060.103945	-433.174648	166.149343	1089.601154	-206.489183	7.451741	1151.827143	-283.994548	24.862175	1153.578659	-371.856362	83.586169	1049.431178	-132.503026	79.405837	1008.532540	-494.827812	171.530795	1024.602099	-130.655095	258.744574	1014.204849	-137.164420	329.997368	973.523870	-111.460267	269.435059	1036.669285	-165.373433	452.271848	884.066819	-141.533200	448.522469	864.928108	-254.067302	438.142618	771.277950	-127.204066	422.530504	685.064508	-147.382706	373.504704	614.799321	-141.946796	437.030993	682.656760	-183.794704	317.542986	508.601010	-149.165577	325.326268	530.662731	-229.199995	530.404692	461.327224	-184.526246	421.660990	439.348886	-128.739900	450.060303	456.205966	-236.411462	180.545237	904.837998	-503.022652	244.525389	846.373554	-495.980270	271.633279	864.614017	-479.781825	270.189288	760.961768	-493.398407	317.953668	673.803460	-466.300027	311.559274	646.455176	-362.562941	273.048657	579.756262	-489.769496	242.752276	500.096927	-474.347924	176.111009	439.920704	-483.127884	256.394072	492.957876	-436.539366	99.067307	364.516633	-470.765499	113.943689	355.256948	-394.556616	19.784058	342.150867	-430.479249	269.603918	201.920663	-442.141177	163.353227	229.001297	-499.900265	-126.747103	871.900630	-308.350818	37.312722	86.559472	-514.162532	33.864179	82.996171	-114.259928	
254	1.2700	480.863776	1282.082291	-122.860985	506.847657	1292.993357	-461.914457	514.000565	1303.493824	-297.668361	445.352463	1185.795118	-298.493847	587.907713	1033.199196	-103.486778	710.197620	836.933036	-130.185855	579.798395	1028.020646	-518.717111	710.124925	835.123240	-474.277497	-5.020943	1127.037531	-324.065936	NaN	NaN	NaN	115.393023	1112.348922	-175.830771	181.839803	1060.095030	-433.186335	166.098074	1089.590987	-206.497626	7.414218	1151.822162	-284.034438	24.819908	1153.569186	-371.882401	83.535330	1049.452330	-132.532252	79.418826	1008.493640	-494.833584	171.504202	1024.657505	-130.684348	258.664616	1014.240713	-137.233227	329.946449	973.569604	-111.533977	269.406293	1036.720760	-165.431535	452.249268	884.119859	-141.571516	448.483402	864.969946	-254.116215	438.134926	771.355878	-127.237446	422.590321	685.114088	-147.405959	373.549463	614.820418	-141.961192	437.083860	682.693882	-183.828627	317.468291	508.868050	-148.837466	325.451343	530.636733	-229.171100	530.556200	461.175119	-184.537300	421.773983	439.254822	-128.751830	450.166917	456.083935	-236.429012	180.541873	904.842644	-503.073922	244.561090	846.401703	-496.064207	271.662543	864.656132	-479.854693	270.252032	761.002953	-493.469132	318.049832	673.854591	-466.351241	311.683974	646.539474	-362.635899	273.128549	579.837472	-489.839813	242.818750	500.180277	-474.377054	176.166815	440.045544	-483.116167	256.470415	493.032528	-436.594792	99.118985	364.684453	-470.755158	113.985254	355.404405	-394.545918	19.826055	342.345022	-430.459582	269.540080	201.924332	-442.125571	163.302080	229.110850	-499.879011	-126.752799	871.891258	-308.353764	37.330424	86.551644	-514.167775	33.877736	83.086071	-114.317850	
255	1.2750	480.838477	1282.071400	-122.881742	506.834252	1292.993729	-461.888385	513.994978	1303.429251	-297.658948	445.339114	1185.760792	-298.517169	587.889086	1033.202948	-103.522795	710.201244	836.964559	-130.213123	579.787634	1028.021885	-518.750067	710.120283	835.126959	-474.284139	-5.058507	1127.034281	-324.120494	NaN	NaN	NaN	115.334850	1112.353657	-175.852032	181.813349	1060.084760	-433.198384	166.039280	1089.613145	-206.475926	7.375929	1151.816501	-284.104338	24.769774	1153.553318	-371.937191	83.484269	1049.460622	-132.554582	79.407676	1008.479399	-494.860762	171.463303	1024.681245	-130.700737	258.650078	1014.257432	-137.300854	329.919280	973.603174	-111.584370	269.361887	1036.739350	-165.509023	452.202639	884.165064	-141.630121	448.460442	864.970587	-254.143787	438.155158	771.371585	-127.276099	422.623220	685.120424	-147.416010	373.689647	614.775082	-141.973391	437.158473	682.704660	-183.822243	317.637770	508.812040	-148.828078	325.587074	530.593461	-229.168651	530.698913	461.002464	-184.548824	421.905030	439.167425	-128.767724	450.285512	456.004148	-236.437163	180.556115	904.850247	-503.124311	244.595652	846.444323	-496.155153	271.705772	864.696172	-479.951542	270.327439	761.025218	-493.528438	318.112048	673.850726	-466.486861	311.777727	646.604329	-362.646539	273.234556	579.968392	-489.880029	242.872781	500.275360	-474.379629	176.205592	440.185343	-483.123179	256.546071	493.161473	-436.603786	99.157027	364.849130	-470.726654	114.040225	355.534911	-394.530707	19.858990	342.572805	-430.453044	269.471766	201.960331	-442.121879	163.239465	229.234000	-499.866508	-126.758991	871.891030	-308.356810	37.316902	86.549127	-514.152258	33.494764	83.232656	-114.484224	
256	1.2800	480.781059	1282.056091	-122.893133	506.826313	1292.968134	-461.846598	513.990121	1303.398007	-297.667411	445.306672	1185.703008	-298.510175	587.836518	1033.193515	-103.539670	710.193618	836.978383	-130.194888	579.785930	1028.013756	-518.771709	710.096985	835.120663	-474.309773	-5.090522	1127.015341	-324.190453	NaN	NaN	NaN	115.269065	1112.375485	-175.862240	181.789258	1060.055650	-433.186057	165.991118	1089.594811	-206.485082	7.346622	1151.783976	-284.181368	24.684279	1153.547229	-371.945562	83.459232	1049.546064	-132.623358	79.392846	1008.438786	-494.905698	171.432492	1024.683039	-130.745441	258.618128	1014.270026	-137.362199	329.906484	973.608306	-111.649314	269.331562	1036.706988	-165.563923	452.170819	884.171278	-141.664566	448.433219	864.961568	-254.210157	438.147402	771.367786	-127.307248	422.682898	685.121880	-147.426978	373.718286	614.872283	-142.028797	437.208371	682.681903	-183.840136	317.786712	508.747527	-148.810479	325.717209	530.544970	-229.144390	530.836171	460.831411	-184.569284	422.039320	439.046422	-128.782286	450.398832	455.862375	-236.415908	180.557878	904.849676	-503.197732	244.760159	846.679387	-496.670969	271.696427	864.717649	-479.936377	270.397402	761.081632	-493.613845	318.203332	673.960160	-466.556386	311.932387	646.718069	-362.709555	273.324779	580.088687	-489.912914	242.953739	500.406548	-474.402568	176.257759	440.297610	-483.133206	256.620956	493.266463	-436.634681	99.184779	365.023336	-470.695287	114.080122	355.686703	-394.515472	19.901778	342.799312	-430.447645	269.387027	201.992037	-442.122349	163.163543	229.387337	-499.858180	-126.751493	871.889023	-308.358964	37.321438	86.543188	-514.157746	33.891269	83.080443	-114.334674	
257	1.2850	480.732798	1282.022281	-122.879730	506.817380	1292.942991	-461.867986	513.967087	1303.344880	-297.651865	445.272702	1185.664422	-298.510527	587.787192	1033.164065	-103.577419	710.178042	836.980082	-130.192695	579.764524	1028.005888	-518.814415	710.092823	835.128319	-474.322927	-5.119416	1126.988915	-324.272894	NaN	NaN	NaN	115.207473	1112.376299	-175.878054	181.775143	1060.037642	-433.193706	165.958308	1089.595576	-206.475215	7.333163	1151.740402	-284.296567	24.752597	1153.484629	-372.076557	83.407302	1049.473562	-132.626896	79.369979	1008.424664	-494.947524	171.433799	1024.686937	-130.773254	258.599596	1014.248757	-137.399086	329.891979	973.592059	-111.711548	269.331470	1036.702667	-165.638187	452.140542	884.154891	-141.724693	448.402010	864.911617	-254.277994	438.151618	771.349210	-127.327446	422.769990	685.088550	-147.409463	373.792094	614.810728	-142.055132	437.270288	682.639697	-183.854215	317.946246	508.643425	-148.832584	325.881964	530.419608	-229.146273	530.976990	460.630510	-184.577118	422.149129	438.925826	-128.777523	450.549019	455.698402	-236.430409	180.570532	904.841907	-503.234584	244.789519	846.716127	-496.751743	271.739246	864.769424	-480.026499	270.489470	761.122183	-493.670087	318.343791	674.022175	-466.610702	312.113904	646.800092	-362.782945	273.431188	580.176872	-489.950685	243.007523	500.522107	-474.407188	176.305812	440.451562	-483.142117	256.691875	493.381956	-436.676721	99.208467	365.194006	-470.671868	114.124249	355.836550	-394.485547	19.933411	343.042570	-430.445028	269.299487	202.024915	-442.125771	163.087816	229.534660	-499.850056	-126.759056	871.892647	-308.364614	37.318064	86.539243	-514.159918	33.891871	83.066743	-114.309900	
